<svg width="36" height="36" viewBox="0 0 36 36" fill="none" xmlns="http://www.w3.org/2000/svg">
<g clip-path="url(#clip0_432_11125)">
<path d="M34.5855 10.9943C33.679 8.85076 32.3814 6.92575 30.7287 5.27284C29.076 3.6199 27.1511 2.32204 25.0077 1.41529C22.7881 0.476297 20.4307 0.000140625 18 0C15.5706 0 13.2133 0.476016 10.9937 1.41479C8.85031 2.32137 6.92543 3.61906 5.27259 5.27179C3.61976 6.92452 2.32197 8.84932 1.41525 10.9927C0.476297 13.2122 0.000140656 15.5695 3.11554e-08 17.9989C-0.000140594 20.4286 0.47577 22.786 1.41448 25.0057C2.32098 27.1493 3.61863 29.0743 5.27136 30.7272C6.92409 32.3801 8.84893 33.678 10.9924 34.5848C13.212 35.5237 15.5694 35.9999 17.9999 36H18.0002C20.4296 36 22.7868 35.524 25.0064 34.5852C27.1498 33.6787 29.0747 32.381 30.7275 30.7283C32.3803 29.0756 33.6781 27.1508 34.5848 25.0074C35.5238 22.7878 35.9999 20.4305 36 18.0011C36.0001 15.5714 35.5242 13.214 34.5855 10.9943ZM18.0001 34.324H17.9991C13.6388 34.3238 9.53954 32.6255 6.45648 29.5421C3.37349 26.4587 1.67572 22.3593 1.67597 17.9991C1.6765 8.99849 8.99944 1.676 18.001 1.676C22.3613 1.67625 26.4605 3.37447 29.5435 6.45785C32.6265 9.54127 34.3242 13.6407 34.324 18.0009C34.3235 27.0015 27.0006 34.324 18.0001 34.324Z" fill="white"/>
<path d="M20.7702 18.6377L18.0002 20.9091L15.2302 18.6377L12.9736 20.4881L7.9469 24.61H18.0002H28.0535L23.0268 20.4881L20.7702 18.6377Z" fill="white"/>
<path d="M14.2428 17.9478L10.9538 14.7561L7.66479 11.5645V17.9478V24.3311L10.9538 21.1394L14.2428 17.9478Z" fill="white"/>
<path d="M18 20.1486L23.103 15.7591L28.2059 11.3696H18H7.79425L12.8971 15.7591L18 20.1486Z" fill="white"/>
<path d="M25.0466 14.7561L21.7575 17.9478L25.0466 21.1395L28.3355 24.3311V17.9478V11.5645L25.0466 14.7561Z" fill="white"/>
</g>
<defs>
<clipPath id="clip0_432_11125">
<rect width="36" height="36" fill="white"/>
</clipPath>
</defs>
</svg>
