<svg width="36" height="36" viewBox="0 0 36 36" fill="none" xmlns="http://www.w3.org/2000/svg">
<g clip-path="url(#clip0_432_11117)">
<path d="M34.5855 10.9943C33.679 8.85076 32.3814 6.92575 30.7287 5.27284C29.076 3.6199 27.1511 2.32204 25.0077 1.41529C22.7881 0.476297 20.4307 0.000140625 18 0C15.5706 0 13.2133 0.476016 10.9937 1.41479C8.8503 2.32137 6.92543 3.61905 5.27259 5.27179C3.61976 6.92452 2.32196 8.84932 1.41525 10.9927C0.476297 13.2122 0.000140656 15.5695 3.11554e-08 17.9989C-0.000140594 20.4286 0.47577 22.786 1.41448 25.0057C2.32098 27.1493 3.61863 29.0743 5.27136 30.7272C6.92409 32.3801 8.84893 33.678 10.9924 34.5848C13.212 35.5237 15.5694 35.9999 17.9999 36H18.0002C20.4296 36 22.7868 35.524 25.0064 34.5852C27.1498 33.6787 29.0747 32.381 30.7275 30.7283C32.3803 29.0756 33.6781 27.1508 34.5848 25.0074C35.5238 22.7878 35.9999 20.4305 36 18.0011C36.0001 15.5714 35.5242 13.214 34.5855 10.9943ZM18.0001 34.324H17.9991C13.6388 34.3238 9.53954 32.6255 6.45648 29.5421C3.37349 26.4587 1.67572 22.3593 1.67597 17.9991C1.6765 8.99849 8.99944 1.676 18.001 1.676C22.3613 1.67625 26.4605 3.37447 29.5435 6.45785C32.6265 9.54127 34.3242 13.6407 34.324 18.0009C34.3235 27.0015 27.0006 34.324 18.0001 34.324Z" fill="white"/>
<path d="M9.97355 25.7592H13.7108L13.7062 12.6655H9.96906L9.97355 25.7592Z" fill="white"/>
<path d="M26.5999 16.1684C26.5084 15.6473 26.36 15.1343 26.1326 14.6557C26.0013 14.3792 25.8359 14.1178 25.6398 13.8824C25.411 13.6077 25.1066 13.3548 24.7974 13.1748C24.5325 13.0206 24.2304 12.8806 23.9348 12.7968C23.7596 12.752 23.5796 12.7213 23.3969 12.7007C22.8487 12.639 22.2771 12.6689 21.7277 12.7112C21.57 12.7296 21.4134 12.7518 21.2582 12.7785C21.103 12.8051 20.9492 12.8362 20.7974 12.8711C20.5295 12.9537 20.2964 13.0839 20.0973 13.2547C19.8981 13.4256 19.7328 13.6371 19.6 13.8819C19.5239 14.0225 19.4579 14.1707 19.4149 14.325C19.4127 14.3331 19.3739 14.5155 19.3819 14.5155H19.3237L19.3191 12.6655H15.5834L15.5879 25.762H19.299C19.299 25.762 19.299 18.7388 19.299 17.7783C19.299 17.3319 19.5857 16.96 19.9535 16.7369C20.3102 16.5206 20.7512 16.5012 21.1568 16.4749C21.3419 16.4629 21.5347 16.4689 21.719 16.488C22.0391 16.521 22.3616 16.6222 22.6009 16.846C23.0004 17.2196 23.0623 17.7895 23.0623 18.3057C23.0623 18.7227 23.0623 19.1398 23.0623 19.5569C23.0623 20.187 23.0623 20.817 23.0623 21.447C23.0623 22.1211 23.0623 22.7951 23.0623 23.4692C23.0623 24.0163 23.0623 24.5634 23.0623 25.1105C23.0623 25.3278 23.0623 25.5449 23.0623 25.7621H26.7384C26.7384 25.5451 26.7384 25.3282 26.7384 25.1112C26.7384 24.5549 26.7384 23.9985 26.7384 23.4421C26.7384 22.7571 26.7384 22.0719 26.7384 21.3869C26.7384 20.2645 26.7384 19.1422 26.7384 18.0199C26.7384 17.4026 26.7068 16.7775 26.5999 16.1684Z" fill="white"/>
<path d="M11.842 11.7884C12.8788 11.7884 13.7193 10.9479 13.7193 9.91103C13.7193 8.87421 12.8788 8.03369 11.842 8.03369C10.8052 8.03369 9.96466 8.87421 9.96466 9.91103C9.96466 10.9479 10.8052 11.7884 11.842 11.7884Z" fill="white"/>
</g>
<defs>
<clipPath id="clip0_432_11117">
<rect width="36" height="36" fill="white"/>
</clipPath>
</defs>
</svg>
