<svg width="36" height="36" viewBox="0 0 36 36" fill="none" xmlns="http://www.w3.org/2000/svg">
<g clip-path="url(#clip0_432_11133)">
<path d="M34.5855 10.9943C33.679 8.85076 32.3814 6.92575 30.7287 5.27284C29.076 3.6199 27.1511 2.32204 25.0077 1.41529C22.7881 0.476297 20.4307 0.000140625 18 0C15.5706 0 13.2133 0.476016 10.9937 1.41479C8.8503 2.32137 6.92543 3.61905 5.27259 5.27179C3.61976 6.92452 2.32196 8.84932 1.41525 10.9927C0.476297 13.2122 0.000140656 15.5695 3.11554e-08 17.9989C-0.000140594 20.4286 0.47577 22.786 1.41448 25.0057C2.32098 27.1493 3.61863 29.0743 5.27136 30.7272C6.92409 32.3801 8.84893 33.678 10.9924 34.5848C13.212 35.5237 15.5694 35.9999 17.9999 36H18.0002C20.4296 36 22.7868 35.524 25.0064 34.5852C27.1498 33.6787 29.0747 32.381 30.7275 30.7283C32.3803 29.0756 33.6781 27.1508 34.5848 25.0074C35.5238 22.7878 35.9999 20.4305 36 18.0011C36.0001 15.5714 35.5242 13.214 34.5855 10.9943ZM18.0001 34.324H17.9991C13.6388 34.3238 9.53954 32.6255 6.45648 29.5421C3.37349 26.4587 1.67572 22.3593 1.67597 17.9991C1.6765 8.99849 8.99944 1.676 18.001 1.676C22.3613 1.67625 26.4605 3.37447 29.5435 6.45785C32.6265 9.54127 34.3242 13.6407 34.324 18.0009C34.3235 27.0015 27.0006 34.324 18.0001 34.324Z" fill="white"/>
<path d="M18.23 20.6918C18.2227 19.9948 18.1211 19.2691 17.7338 18.6733C17.3505 18.0837 16.7583 17.6114 16.0841 17.4024C16.152 17.4235 16.4827 17.1471 16.5484 17.1016C17.9934 16.1005 18.1277 13.9958 17.3478 12.5322C16.5087 10.9578 14.5033 10.694 12.8908 10.7227H6.42657V25.1466C6.42657 25.1466 10.6833 25.1466 12.9728 25.1466C13.4947 25.1466 14.0284 25.11 14.5444 25.0308C14.9743 24.9648 15.4259 24.826 15.8248 24.6543C16.5232 24.3537 17.1391 23.8347 17.574 23.2123C18.0864 22.4788 18.2393 21.5732 18.23 20.6918ZM9.77352 13.2364C9.77352 13.2364 12.6306 13.2364 12.6388 13.2364C13.7696 13.2364 14.6919 13.3514 14.8987 14.4139C14.9464 14.659 14.9634 14.9817 14.9062 15.2266C14.8796 15.3408 14.8404 15.4502 14.7886 15.5512C14.4896 16.1347 14.0098 16.4005 13.2481 16.4005C12.5626 16.4005 9.77352 16.4005 9.77352 16.4005V13.2364ZM15.2688 21.2115C15.0968 21.9645 14.4908 22.4489 13.7504 22.57C13.5797 22.5979 13.4008 22.6173 13.2277 22.6173C12.4998 22.6173 9.77559 22.6173 9.77559 22.6173V18.8087C9.77559 18.8087 13.2619 18.8102 13.2833 18.8102C14.0626 18.8102 14.4493 19.0196 14.7956 19.352C15.208 19.7479 15.3523 20.3512 15.314 20.9052C15.3069 21.0077 15.2918 21.1105 15.2688 21.2115Z" fill="white"/>
<path d="M27.413 11.2852H21.5419V12.8057H27.413V11.2852Z" fill="white"/>
<path d="M29.6815 19.4569C29.6778 19.3431 29.6775 19.2292 29.6723 19.1154C29.6669 18.9979 29.6553 18.8807 29.6444 18.7636C29.6338 18.6496 29.622 18.5358 29.6052 18.4225C29.5881 18.3083 29.5685 18.1943 29.5467 18.0808C29.525 17.9678 29.4993 17.8558 29.4701 17.7445C29.4416 17.6355 29.4107 17.5271 29.3757 17.42C29.3406 17.3123 29.3009 17.2063 29.258 17.1014C29.2481 17.0771 29.2383 17.0527 29.228 17.0286C28.6519 15.6884 27.506 14.5467 26.0431 14.2571C24.487 13.9491 22.6917 14.0756 21.3951 15.0553C20.1596 15.9888 19.5031 17.4996 19.3551 19.0112C19.1714 20.8883 19.9678 22.9413 21.4973 24.0795C21.9018 24.3805 22.3779 24.6222 22.8516 24.7946C24.0798 25.2416 25.4094 25.2512 26.6194 24.7293C27.8699 24.1899 28.9845 23.1626 29.4599 21.8635C29.4682 21.8407 29.4758 21.8174 29.4828 21.794C29.4933 21.7597 29.5068 21.7251 29.5134 21.6897C29.5145 21.6839 29.5153 21.6778 29.5162 21.6721C29.5174 21.6644 29.5104 21.6645 29.5031 21.6645C29.4882 21.6646 29.4733 21.6645 29.4585 21.6645C29.4433 21.6645 29.4281 21.6645 29.4129 21.6645C29.3971 21.6645 29.3812 21.6645 29.3654 21.6645C29.3485 21.6645 29.3318 21.6645 29.315 21.6645C29.297 21.6645 29.2791 21.6645 29.2611 21.6645C29.2418 21.6645 29.2224 21.6645 29.2031 21.6645C29.1823 21.6645 29.1613 21.6645 29.1405 21.6645C29.1181 21.6645 29.0957 21.6645 29.0732 21.6645C29.0491 21.6645 29.025 21.6645 29.001 21.6645C28.9753 21.6645 28.9497 21.6645 28.9241 21.6645C28.897 21.6645 28.8699 21.6645 28.8429 21.6645C28.8145 21.6645 28.7862 21.6645 28.7578 21.6645C28.7284 21.6645 28.6989 21.6645 28.6695 21.6645C28.6391 21.6645 28.6088 21.6645 28.5785 21.6645C28.5475 21.6645 28.5165 21.6645 28.4855 21.6645C28.4541 21.6645 28.4227 21.6645 28.3913 21.6645C28.3596 21.6645 28.328 21.6645 28.2964 21.6645C28.2647 21.6645 28.233 21.6645 28.2014 21.6645C28.1698 21.6645 28.1382 21.6645 28.1066 21.6645C28.0753 21.6645 28.0439 21.6645 28.0125 21.6645C27.9814 21.6645 27.9503 21.6645 27.9192 21.6645C27.8885 21.6645 27.8576 21.6645 27.8269 21.6645C27.7965 21.6645 27.7661 21.6645 27.7356 21.6645C27.7056 21.6645 27.6755 21.6645 27.6455 21.6645C27.6158 21.6645 27.5862 21.6645 27.5566 21.6645C27.5275 21.6645 27.4984 21.6645 27.4693 21.6645C27.4409 21.6645 27.4124 21.6645 27.3839 21.6645C27.3562 21.6645 27.3286 21.6645 27.3009 21.6645C27.2743 21.6645 27.2476 21.6645 27.221 21.6645C27.1957 21.6645 27.1704 21.6645 27.145 21.6645C27.1213 21.6645 27.0975 21.6645 27.0738 21.6645C27.0519 21.6645 27.03 21.6645 27.0082 21.6645C26.9884 21.6645 26.9687 21.6645 26.9489 21.6645C26.9315 21.6645 26.914 21.6645 26.8966 21.6645C26.8817 21.6645 26.8667 21.6645 26.8518 21.6645C26.7963 21.6645 26.7404 21.6508 26.6944 21.6883C26.6512 21.7235 26.618 21.8 26.5857 21.8459C26.052 22.6058 25.2646 22.9591 24.3349 22.8635C24.1033 22.8397 23.8627 22.7876 23.6429 22.7099C23.241 22.5676 22.8669 22.296 22.6183 21.9478C22.3631 21.5905 22.2517 21.148 22.1956 20.7187C22.1811 20.6073 22.1694 20.4949 22.1647 20.3826C22.1637 20.3595 22.1655 20.3479 22.1749 20.3423C22.1816 20.3384 22.1921 20.3373 22.2083 20.3373C22.2224 20.3373 22.2365 20.3373 22.2506 20.3373C22.2685 20.3373 22.2864 20.3373 22.3042 20.3373C22.3274 20.3373 22.3507 20.3373 22.3739 20.3373C22.4035 20.3373 22.4331 20.3373 22.4627 20.3373C22.4994 20.3373 22.536 20.3373 22.5727 20.3373C22.6165 20.3373 22.6603 20.3373 22.7041 20.3373C22.7548 20.3373 22.8056 20.3373 22.8563 20.3373C22.9134 20.3373 22.9704 20.3373 23.0275 20.3373C23.0902 20.3373 23.1529 20.3373 23.2156 20.3373C23.283 20.3373 23.3505 20.3373 23.418 20.3373C23.4894 20.3373 23.5608 20.3373 23.6322 20.3373C23.707 20.3373 23.7817 20.3373 23.8564 20.3373C23.9338 20.3373 24.0112 20.3373 24.0886 20.3373C24.1684 20.3373 24.248 20.3373 24.3278 20.3373C24.4095 20.3373 24.4911 20.3373 24.5729 20.3373C24.6562 20.3373 24.7396 20.3373 24.823 20.3373C24.9079 20.3373 24.9928 20.3374 25.0776 20.3374C25.1636 20.3374 25.2497 20.3374 25.3358 20.3374C25.4228 20.3374 25.5098 20.3374 25.5968 20.3374C25.6844 20.3374 25.7719 20.3374 25.8595 20.3374C25.9472 20.3374 26.035 20.3374 26.1228 20.3374C26.2103 20.3374 26.2979 20.3374 26.3855 20.3374C26.4725 20.3374 26.5595 20.3374 26.6465 20.3373C26.7326 20.3373 26.8187 20.3374 26.9048 20.3373C26.9897 20.3373 27.0745 20.3373 27.1593 20.3373C27.2425 20.3373 27.3257 20.3373 27.4089 20.3373C27.4901 20.3373 27.5713 20.3373 27.6525 20.3373C27.7312 20.3373 27.8099 20.3373 27.8887 20.3373C27.9644 20.3373 28.0403 20.3373 28.116 20.3373C28.1882 20.3373 28.2604 20.3374 28.3326 20.3374C28.4005 20.3374 28.4684 20.3374 28.5364 20.3374C28.5995 20.3375 28.6625 20.3375 28.7256 20.3375C28.7831 20.3375 28.8407 20.3375 28.8983 20.3375C28.9499 20.3375 29.0016 20.3375 29.0532 20.3375C29.0988 20.3375 29.1444 20.3375 29.19 20.3374C29.2296 20.3374 29.2693 20.3373 29.309 20.3373C29.3433 20.3372 29.3776 20.3372 29.4119 20.3371C29.4419 20.337 29.4718 20.3369 29.5017 20.3368C29.5285 20.3368 29.5552 20.3366 29.582 20.3365C29.6088 20.3364 29.6373 20.3154 29.6496 20.2932C29.6721 20.2525 29.6721 20.1993 29.6731 20.1543C29.6758 20.0357 29.6719 19.9178 29.6792 19.7992C29.6862 19.685 29.6852 19.5714 29.6815 19.4569ZM26.8594 18.5152H22.1719C22.1719 18.5152 22.3008 16.3589 24.5977 16.3589C26.8946 16.3589 26.8594 18.5152 26.8594 18.5152Z" fill="white"/>
</g>
<defs>
<clipPath id="clip0_432_11133">
<rect width="36" height="36" fill="white"/>
</clipPath>
</defs>
</svg>
