<svg width="190" height="292" viewBox="0 0 190 292" fill="none" xmlns="http://www.w3.org/2000/svg">
<path d="M126.931 69C126.931 103.437 104.739 129 79.9655 129C55.1921 129 33 103.437 33 69C33 51.078 35.4986 36.0595 42.3664 25.631C48.8929 15.7208 60.025 9 79.9655 9C99.9061 9 111.038 15.7208 117.565 25.631C124.432 36.0595 126.931 51.078 126.931 69Z" stroke="#1B4079" stroke-width="12"/>
<path d="M148 66C148 100.437 125.808 126 101.034 126C76.2609 126 54.0688 100.437 54.0688 66C54.0688 48.078 56.5675 33.0595 63.4353 22.631C69.9617 12.7208 81.0938 6 101.034 6C120.975 6 132.107 12.7208 138.633 22.631C145.501 33.0595 148 48.078 148 66Z" stroke="#1B4079" stroke-width="12"/>
<path d="M0 70C0 66.6863 2.68629 64 6 64H160V292H6C2.6863 292 0 289.314 0 286V70Z" fill="#1B4079"/>
<path d="M80 150.498L90.3819 143.751C97.2262 139.303 106.25 140.25 112.021 146.021V146.021C118.771 152.771 118.771 163.714 112.021 170.464L84.2426 198.243C81.8995 200.586 78.1005 200.586 75.7574 198.243L47.9785 170.464C41.2289 163.714 41.2289 152.771 47.9785 146.021V146.021C53.7505 140.25 62.7738 139.303 69.6181 143.751L80 150.498Z" fill="white"/>
<path d="M163 287V69.2573L177.662 77.9214C178.539 78.4393 179.093 79.3664 179.134 80.3837L186.851 272.358C186.897 273.508 186.281 274.583 185.265 275.125L163 287Z" fill="white" stroke="#1B4079" stroke-width="6"/>
</svg>
